<svg width="24" height="16" viewBox="0 0 24 16" fill="none" xmlns="http://www.w3.org/2000/svg">
<path d="M0 2C0 0.895431 0.895431 0 2 0H22C23.1046 0 24 0.895431 24 2V14C24 15.1046 23.1046 16 22 16H2C0.89543 16 0 15.1046 0 14V2Z" fill="black" fill-opacity="0.05"/>
<path d="M11.2656 9.29297C11.1602 10.1953 10.8262 10.8926 10.2637 11.3848C9.70508 11.873 8.96094 12.1172 8.03125 12.1172C7.02344 12.1172 6.21484 11.7559 5.60547 11.0332C5 10.3105 4.69727 9.34375 4.69727 8.13281V7.3125C4.69727 6.51953 4.83789 5.82227 5.11914 5.2207C5.4043 4.61914 5.80664 4.1582 6.32617 3.83789C6.8457 3.51367 7.44727 3.35156 8.13086 3.35156C9.03711 3.35156 9.76367 3.60547 10.3105 4.11328C10.8574 4.61719 11.1758 5.31641 11.2656 6.21094H10.1348C10.0371 5.53125 9.82422 5.03906 9.49609 4.73438C9.17188 4.42969 8.7168 4.27734 8.13086 4.27734C7.41211 4.27734 6.84766 4.54297 6.4375 5.07422C6.03125 5.60547 5.82812 6.36133 5.82812 7.3418V8.16797C5.82812 9.09375 6.02148 9.83008 6.4082 10.377C6.79492 10.9238 7.33594 11.1973 8.03125 11.1973C8.65625 11.1973 9.13477 11.0566 9.4668 10.7754C9.80273 10.4902 10.0254 9.99609 10.1348 9.29297H11.2656ZM19.082 9.29297C18.9766 10.1953 18.6426 10.8926 18.0801 11.3848C17.5215 11.873 16.7773 12.1172 15.8477 12.1172C14.8398 12.1172 14.0312 11.7559 13.4219 11.0332C12.8164 10.3105 12.5137 9.34375 12.5137 8.13281V7.3125C12.5137 6.51953 12.6543 5.82227 12.9355 5.2207C13.2207 4.61914 13.623 4.1582 14.1426 3.83789C14.6621 3.51367 15.2637 3.35156 15.9473 3.35156C16.8535 3.35156 17.5801 3.60547 18.127 4.11328C18.6738 4.61719 18.9922 5.31641 19.082 6.21094H17.9512C17.8535 5.53125 17.6406 5.03906 17.3125 4.73438C16.9883 4.42969 16.5332 4.27734 15.9473 4.27734C15.2285 4.27734 14.6641 4.54297 14.2539 5.07422C13.8477 5.60547 13.6445 6.36133 13.6445 7.3418V8.16797C13.6445 9.09375 13.8379 9.83008 14.2246 10.377C14.6113 10.9238 15.1523 11.1973 15.8477 11.1973C16.4727 11.1973 16.9512 11.0566 17.2832 10.7754C17.6191 10.4902 17.8418 9.99609 17.9512 9.29297H19.082Z" fill="#606060"/>
</svg>
