<svg width="5" height="5" viewBox="0 0 5 5" fill="none" xmlns="http://www.w3.org/2000/svg">
<path d="M2.17898 4.39773C1.83523 4.39773 1.52131 4.31392 1.23722 4.14631C0.953125 3.97585 0.725852 3.74858 0.555398 3.46449C0.387784 3.1804 0.303977 2.86648 0.303977 2.52273C0.303977 2.17614 0.387784 1.86222 0.555398 1.58097C0.725852 1.29687 0.953125 1.07102 1.23722 0.903409C1.52131 0.732954 1.83523 0.647727 2.17898 0.647727C2.52557 0.647727 2.83949 0.732954 3.12074 0.903409C3.40483 1.07102 3.63068 1.29687 3.7983 1.58097C3.96875 1.86222 4.05398 2.17614 4.05398 2.52273C4.05398 2.86648 3.96875 3.1804 3.7983 3.46449C3.63068 3.74858 3.40483 3.97585 3.12074 4.14631C2.83949 4.31392 2.52557 4.39773 2.17898 4.39773Z" fill="#71717A"/>
</svg>
