<svg width="106" height="36" viewBox="0 0 106 36" fill="none" xmlns="http://www.w3.org/2000/svg">
<path d="M0 2C0 0.895431 0.895431 0 2 0H104C105.105 0 106 0.895431 106 2V34C106 35.1046 105.105 36 104 36H2C0.895429 36 0 35.1046 0 34V2Z" fill="#CC0000"/>
<path d="M20.7269 18.5635C19.6012 18.2399 18.7809 17.8434 18.2659 17.374C17.7555 16.9001 17.5003 16.3167 17.5003 15.624C17.5003 14.8402 17.8125 14.193 18.4368 13.6826C19.0658 13.1676 19.8815 12.9102 20.8841 12.9102C21.5677 12.9102 22.1761 13.0423 22.7093 13.3066C23.2471 13.571 23.6618 13.9355 23.9534 14.4004C24.2497 14.8652 24.3978 15.3734 24.3978 15.9248H23.0784C23.0784 15.3232 22.887 14.8516 22.5042 14.5098C22.1214 14.1634 21.5814 13.9902 20.8841 13.9902C20.237 13.9902 19.7311 14.1338 19.3665 14.4209C19.0065 14.7035 18.8265 15.0977 18.8265 15.6035C18.8265 16.0091 18.9974 16.3532 19.3392 16.6357C19.6855 16.9137 20.2712 17.1689 21.096 17.4014C21.9255 17.6338 22.5726 17.8913 23.0374 18.1738C23.5068 18.4518 23.8532 18.7777 24.0765 19.1514C24.3044 19.5251 24.4183 19.9648 24.4183 20.4707C24.4183 21.2773 24.1038 21.9245 23.4749 22.4121C22.846 22.8952 22.0052 23.1367 20.9525 23.1367C20.2689 23.1367 19.6309 23.0068 19.0384 22.7471C18.446 22.4827 17.988 22.1227 17.6644 21.667C17.3454 21.2113 17.1859 20.694 17.1859 20.1152H18.5052C18.5052 20.7168 18.7262 21.193 19.1683 21.5439C19.6149 21.8903 20.2096 22.0635 20.9525 22.0635C21.6452 22.0635 22.1761 21.9222 22.5452 21.6396C22.9144 21.3571 23.099 20.972 23.099 20.4844C23.099 19.9967 22.9281 19.6208 22.5863 19.3564C22.2445 19.0876 21.6247 18.8232 20.7269 18.5635ZM33.1206 13.0469V19.8145C33.116 20.7533 32.8198 21.5212 32.2319 22.1182C31.6486 22.7152 30.8556 23.0501 29.853 23.123L29.5044 23.1367C28.4152 23.1367 27.547 22.8428 26.8999 22.2549C26.2528 21.667 25.9246 20.8581 25.9155 19.8281V13.0469H27.2144V19.7871C27.2144 20.5072 27.4126 21.0677 27.8091 21.4688C28.2056 21.8652 28.7707 22.0635 29.5044 22.0635C30.2472 22.0635 30.8146 21.8652 31.2065 21.4688C31.603 21.0723 31.8013 20.514 31.8013 19.7939V13.0469H33.1206ZM35.1989 23V13.0469H38.4528C39.5329 13.0469 40.3441 13.2702 40.8864 13.7168C41.4333 14.1634 41.7067 14.8242 41.7067 15.6992C41.7067 16.1641 41.5745 16.5765 41.3102 16.9365C41.0459 17.292 40.6859 17.5677 40.2301 17.7637C40.7679 17.9141 41.1917 18.2012 41.5016 18.625C41.8161 19.0443 41.9733 19.5456 41.9733 20.1289C41.9733 21.0221 41.6839 21.724 41.1051 22.2344C40.5264 22.7448 39.7083 23 38.651 23H35.1989ZM36.5114 18.3447V21.9268H38.6784C39.2891 21.9268 39.7699 21.7695 40.1208 21.4551C40.4762 21.1361 40.654 20.6986 40.654 20.1426C40.654 18.944 40.0023 18.3447 38.6989 18.3447H36.5114ZM36.5114 17.292H38.4938C39.068 17.292 39.526 17.1484 39.8678 16.8613C40.2142 16.5742 40.3874 16.1846 40.3874 15.6924C40.3874 15.1455 40.2279 14.749 39.9089 14.5029C39.5898 14.2523 39.1045 14.127 38.4528 14.127H36.5114V17.292ZM46.8612 18.5635C45.7355 18.2399 44.9152 17.8434 44.4002 17.374C43.8898 16.9001 43.6346 16.3167 43.6346 15.624C43.6346 14.8402 43.9468 14.193 44.5711 13.6826C45.2 13.1676 46.0158 12.9102 47.0184 12.9102C47.702 12.9102 48.3104 13.0423 48.8436 13.3066C49.3813 13.571 49.7961 13.9355 50.0877 14.4004C50.384 14.8652 50.5321 15.3734 50.5321 15.9248H49.2127C49.2127 15.3232 49.0213 14.8516 48.6385 14.5098C48.2557 14.1634 47.7157 13.9902 47.0184 13.9902C46.3713 13.9902 45.8654 14.1338 45.5008 14.4209C45.1408 14.7035 44.9608 15.0977 44.9608 15.6035C44.9608 16.0091 45.1317 16.3532 45.4735 16.6357C45.8198 16.9137 46.4054 17.1689 47.2303 17.4014C48.0597 17.6338 48.7069 17.8913 49.1717 18.1738C49.6411 18.4518 49.9875 18.7777 50.2108 19.1514C50.4386 19.5251 50.5526 19.9648 50.5526 20.4707C50.5526 21.2773 50.2381 21.9245 49.6092 22.4121C48.9803 22.8952 48.1395 23.1367 47.0868 23.1367C46.4032 23.1367 45.7651 23.0068 45.1727 22.7471C44.5802 22.4827 44.1222 22.1227 43.7987 21.667C43.4797 21.2113 43.3201 20.694 43.3201 20.1152H44.6395C44.6395 20.7168 44.8605 21.193 45.3026 21.5439C45.7492 21.8903 46.3439 22.0635 47.0868 22.0635C47.7795 22.0635 48.3104 21.9222 48.6795 21.6396C49.0487 21.3571 49.2332 20.972 49.2332 20.4844C49.2332 19.9967 49.0623 19.6208 48.7205 19.3564C48.3787 19.0876 47.759 18.8232 46.8612 18.5635ZM59.5693 19.8418C59.4463 20.8945 59.0566 21.708 58.4004 22.2822C57.7487 22.8519 56.8805 23.1367 55.7959 23.1367C54.6201 23.1367 53.6768 22.7152 52.9658 21.8721C52.2594 21.029 51.9062 19.901 51.9062 18.4883V17.5312C51.9062 16.6061 52.0703 15.7926 52.3984 15.0908C52.7311 14.389 53.2005 13.8512 53.8066 13.4775C54.4128 13.0993 55.1146 12.9102 55.9121 12.9102C56.9694 12.9102 57.8171 13.2064 58.4551 13.7988C59.0931 14.3867 59.4645 15.2025 59.5693 16.2461H58.25C58.1361 15.4531 57.8877 14.8789 57.5049 14.5234C57.1266 14.168 56.5957 13.9902 55.9121 13.9902C55.0736 13.9902 54.415 14.3001 53.9365 14.9199C53.4626 15.5397 53.2256 16.4215 53.2256 17.5654V18.5293C53.2256 19.6094 53.4512 20.4684 53.9023 21.1064C54.3535 21.7445 54.9847 22.0635 55.7959 22.0635C56.5251 22.0635 57.0833 21.8994 57.4707 21.5713C57.8626 21.2386 58.1224 20.6621 58.25 19.8418H59.5693ZM65.0246 18.9736H62.6867V23H61.3674V13.0469H64.6623C65.7834 13.0469 66.6447 13.3021 67.2463 13.8125C67.8524 14.3229 68.1554 15.0658 68.1554 16.041C68.1554 16.6608 67.9868 17.2008 67.6496 17.6611C67.3169 18.1214 66.8521 18.4655 66.255 18.6934L68.5929 22.918V23H67.1847L65.0246 18.9736ZM62.6867 17.9004H64.7033C65.355 17.9004 65.8722 17.7318 66.255 17.3945C66.6424 17.0573 66.8361 16.6061 66.8361 16.041C66.8361 15.4258 66.6515 14.9541 66.2824 14.626C65.9178 14.2979 65.3892 14.1315 64.6965 14.127H62.6867V17.9004ZM71.4163 23H70.1038V13.0469H71.4163V23ZM73.8296 23V13.0469H77.0835C78.1636 13.0469 78.9748 13.2702 79.5171 13.7168C80.064 14.1634 80.3374 14.8242 80.3374 15.6992C80.3374 16.1641 80.2052 16.5765 79.9409 16.9365C79.6766 17.292 79.3166 17.5677 78.8608 17.7637C79.3986 17.9141 79.8224 18.2012 80.1323 18.625C80.4468 19.0443 80.604 19.5456 80.604 20.1289C80.604 21.0221 80.3146 21.724 79.7358 22.2344C79.1571 22.7448 78.339 23 77.2817 23H73.8296ZM75.1421 18.3447V21.9268H77.3091C77.9198 21.9268 78.4006 21.7695 78.7515 21.4551C79.1069 21.1361 79.2847 20.6986 79.2847 20.1426C79.2847 18.944 78.633 18.3447 77.3296 18.3447H75.1421ZM75.1421 17.292H77.1245C77.6987 17.292 78.1567 17.1484 78.4985 16.8613C78.8449 16.5742 79.0181 16.1846 79.0181 15.6924C79.0181 15.1455 78.8586 14.749 78.5396 14.5029C78.2205 14.2523 77.7352 14.127 77.0835 14.127H75.1421V17.292ZM88.1852 18.3994H83.8717V21.9268H88.8825V23H82.5592V13.0469H88.8141V14.127H83.8717V17.3262H88.1852V18.3994Z" fill="white"/>
</svg>
